Kahaani - 2012 - 1080p DVDRip - x264 - AC3 5.1 - DrC - [D!D] 

Screenshots :
 
http://i.imgur.com/lIOv1.jpg 
http://i.imgur.com/lTiYF.jpg 
http://i.imgur.com/oxfnU.jpg 
http://i.imgur.com/vDF2Z.jpg 
http://i.imgur.com/A2hUg.jpg 
http://i.imgur.com/eHtpB.jpg 
http://i.imgur.com/kHmRr.jpg

Rip Info :

General

Format                                   : Matroska
Format version                           : Version 2
File size                                : 4.37 GiB
Duration                                 : 2h 2mn
Overall bit rate mode                    : Variable
Overall bit rate                         : 5 096 Kbps

Video

Format                                   : AVC
Format/Info                              : Advanced Video Codec
Format profile                           : High@L4.1
Format settings, CABAC                   : Yes
Format settings, ReFrames                : 3 frames
Codec ID                                 : V_MPEG4/ISO/AVC
Duration                                 : 2h 2mn
Bit rate mode                            : Variable
Bit rate                                 : 4 647 Kbps
Maximum bit rate                         : 40.0 Mbps
Width                                    : 1 920 pixels
Height                                   : 816 pixels
Display aspect ratio                     : 2.35:1
Frame rate                               : 23.976 fps
Color space                              : YUV
Chroma subsampling                       : 4:2:0
Bit depth                                : 8 bits
Scan type                                : Progressive
Bits/(Pixel*Frame)                       : 0.124
Stream size                              : 3.90 GiB (89%)


Audio

Format                                   : AC-3
Format/Info                              : Audio Coding 3
Mode extension                           : CM (complete main)
Codec ID                                 : A_AC3
Duration                                 : 2h 2mn
Bit rate mode                            : Constant
Bit rate                                 : 448 Kbps
Channel(s)                               : 6 channels
Channel positions                        : Front: L C R, Side: L R, LFE
Sampling rate                            : 48.0 KHz
Bit depth                                : 16 bits
Compression mode                         : Lossy
Delay relative to video                  : 15ms
Stream size                              : 394 MiB (9%)


Text

Format                                   : VobSub
Muxing mode                              : zlib
Codec ID                                 : S_VOBSUB
Codec ID/Info                            : The same subtitle format used on DVDs
Language                                 : Hindi
Default                                  : Yes
Forced                                   : No